<svg xmlns="http://www.w3.org/2000/svg" viewBox="0 0 256 256" width="256" height="256">
  <defs>
    <radialGradient id="bg" cx="128" cy="128" r="180" gradientUnits="userSpaceOnUse">
      <stop offset="0%" stop-color="#1e293b"/>
      <stop offset="100%" stop-color="#0f172a"/>
    </radialGradient>
  </defs>

  <!-- Rounded square background -->
  <rect width="256" height="256" rx="48" fill="url(#bg)"/>

  <!-- Main sparkle -->
  <path
    d="M128 56l14 50 50 14-50 14-14 50-14-50-50-14 50-14z"
    fill="#D97706"/>

  <!-- Small sparkle top-right -->
  <path
    d="M192 60l5 15 15 5-15 5-5 15-5-15-15-5 15-5z"
    fill="#D97706" opacity="0.7"/>

  <!-- Small sparkle bottom-left -->
  <path
    d="M72 170l4 12 12 4-12 4-4 12-4-12-12-4 12-4z"
    fill="#D97706" opacity="0.5"/>

  <!-- Tiny sparkle top-left -->
  <path
    d="M80 76l3 9 9 3-9 3-3 9-3-9-9-3 9-3z"
    fill="#D97706" opacity="0.35"/>

  <!-- Tiny sparkle right -->
  <path
    d="M200 140l3 9 9 3-9 3-3 9-3-9-9-3 9-3z"
    fill="#D97706" opacity="0.35"/>
</svg>
